PathFileType	4	(X/Y/Z)	 0.16m3min.trc
DataRate	CameraRate	NumFrames	NumMarkers	Units	OrigDataRate	OrigDataStartFrame	OrigNumFrames
200	200	8	35	m	200	751	1000
Frame#	Time	C7			LSH			RSH			MAN			RASI			LASI			HIPR			HIPL			RPSI			LPSI			COX			RTHI1			RTHI2			RTHI3			RTHI4			RSHA1			RSHA2			RSHA3			RSHA4			RHEEL			RMET5			RMET1			RTOE			LTHI1			LTHI2			LTHI3			LTHI4			LSHA1			LSHA2			LSHA3			LSHA4			LHEEL			LMET5			LMET1			LTOE			
		X1	Y1	Z1	X2	Y2	Z2	X3	Y3	Z3	X4	Y4	Z4	X5	Y5	Z5	X6	Y6	Z6	X7	Y7	Z7	X8	Y8	Z8	X9	Y9	Z9	X10	Y10	Z10	X11	Y11	Z11	X12	Y12	Z12	X13	Y13	Z13	X14	Y14	Z14	X15	Y15	Z15	X16	Y16	Z16	X17	Y17	Z17	X18	Y18	Z18	X19	Y19	Z19	X20	Y20	Z20	X21	Y21	Z21	X22	Y22	Z22	X23	Y23	Z23	X24	Y24	Z24	X25	Y25	Z25	X26	Y26	Z26	X27	Y27	Z27	X28	Y28	Z28	X29	Y29	Z29	X30	Y30	Z30	X31	Y31	Z31	X32	Y32	Z32	X33	Y33	Z33	X34	Y34	Z34	X35	Y35	Z35	
751	3.7550	-0.411154	1.725389	-0.550726	-0.339786	1.735642	-0.768744	-0.346871	1.730847	-0.346363	-0.251830	1.690823	-0.554328	-0.209537	1.208461	-0.431899	-0.208395	1.210362	-0.662849	-0.281819	1.293617	-0.389647	-0.266488	1.288880	-0.706952	-0.389310	1.256659	-0.494698	-0.386229	1.259000	-0.604191	-0.394641	1.262647	-0.546664	-0.326181	0.980116	-0.350052	-0.318618	0.922397	-0.336747	-0.254327	0.930240	-0.328580	-0.254402	0.990507	-0.341348	-0.405748	0.507293	-0.341499	-0.411562	0.464786	-0.343299	-0.353338	0.463159	-0.325891	-0.350554	0.503087	-0.328332	-0.423055	0.185851	-0.392288	-0.298595	0.052226	-0.319582	-0.248648	0.063667	-0.389201	-0.225892	0.047794	-0.381066	-0.290711	0.960193	-0.754247	-0.280930	0.899605	-0.758389	-0.216738	0.904184	-0.754460	-0.217512	0.964297	-0.750153	-0.395757	0.460219	-0.745094	-0.401570	0.420275	-0.741512	-0.341016	0.416165	-0.756769	-0.343366	0.460070	-0.758585	-0.433701	0.185812	-0.698424	-0.309664	0.044230	-0.751603	-0.260638	0.054954	-0.681679	-0.235384	0.039236	-0.690967	
752	3.7600	-0.411146	1.730102	-0.550965	-0.339559	1.740553	-0.768671	-0.346812	1.735698	-0.346892	-0.251885	1.695372	-0.554620	-0.208598	1.212682	-0.432130	-0.208055	1.214769	-0.663173	-0.280625	1.297637	-0.389518	-0.266284	1.293399	-0.707086	-0.388473	1.261464	-0.494310	-0.385744	1.263810	-0.603864	-0.393932	1.267544	-0.546301	-0.326779	0.984879	-0.350542	-0.319721	0.927014	-0.337435	-0.255392	0.934246	-0.328958	-0.254965	0.994586	-0.341463	-0.406638	0.510936	-0.342161	-0.411862	0.468349	-0.343671	-0.353568	0.467456	-0.326448	-0.351270	0.507397	-0.328991	-0.421838	0.189683	-0.391315	-0.296097	0.057344	-0.318387	-0.246969	0.068253	-0.388606	-0.224046	0.052693	-0.380457	-0.292585	0.964966	-0.754180	-0.283332	0.904294	-0.758337	-0.219105	0.908333	-0.755028	-0.219312	0.968491	-0.750794	-0.396002	0.464341	-0.745462	-0.401338	0.424336	-0.741995	-0.340705	0.420960	-0.757142	-0.343563	0.464856	-0.758876	-0.432077	0.190589	-0.700507	-0.308619	0.047825	-0.752228	-0.260636	0.058108	-0.681631	-0.235372	0.042189	-0.690619	
753	3.7650	-0.411135	1.734520	-0.551164	-0.339357	1.745150	-0.768643	-0.346714	1.740234	-0.347348	-0.251820	1.699666	-0.554884	-0.207815	1.216611	-0.432361	-0.207838	1.218853	-0.663484	-0.279386	1.301466	-0.389391	-0.266090	1.297506	-0.707241	-0.387734	1.266029	-0.493935	-0.385345	1.268345	-0.603564	-0.393338	1.272166	-0.545966	-0.327439	0.989365	-0.351086	-0.320837	0.931385	-0.338096	-0.256492	0.938066	-0.329317	-0.255599	0.998467	-0.341577	-0.407195	0.514590	-0.342381	-0.411974	0.471927	-0.343706	-0.353555	0.471571	-0.326971	-0.351635	0.511510	-0.329612	-0.421124	0.193055	-0.390671	-0.293491	0.062742	-0.317171	-0.245108	0.073184	-0.388069	-0.221907	0.058117	-0.379998	-0.294474	0.969437	-0.754084	-0.285699	0.908699	-0.758291	-0.221457	0.912258	-0.755620	-0.221137	0.972432	-0.751418	-0.396150	0.468313	-0.745956	-0.401121	0.428264	-0.742571	-0.340383	0.425464	-0.757443	-0.343643	0.469350	-0.759144	-0.431026	0.194887	-0.702385	-0.307410	0.051743	-0.753059	-0.260564	0.061564	-0.681511	-0.235177	0.045620	-0.690094	
754	3.7700	-0.411123	1.738643	-0.551323	-0.339192	1.749431	-0.768665	-0.346570	1.744456	-0.347727	-0.251742	1.703692	-0.555147	-0.207184	1.220288	-0.432588	-0.207741	1.222641	-0.663779	-0.278148	1.305153	-0.389282	-0.265924	1.301230	-0.707411	-0.387093	1.270372	-0.493587	-0.385036	1.272616	-0.603290	-0.392858	1.276518	-0.545664	-0.328140	0.993609	-0.351677	-0.321946	0.935532	-0.338788	-0.257598	0.941738	-0.329661	-0.256295	1.002187	-0.341707	-0.407479	0.518272	-0.342281	-0.411993	0.475536	-0.343519	-0.353366	0.475543	-0.327462	-0.351719	0.515462	-0.330191	-0.420768	0.196005	-0.390410	-0.290872	0.068282	-0.316047	-0.243084	0.078362	-0.387542	-0.219522	0.063887	-0.379584	-0.296335	0.973614	-0.753993	-0.287988	0.912818	-0.758264	-0.223756	0.915960	-0.756215	-0.222958	0.976133	-0.752004	-0.396248	0.472134	-0.746527	-0.400973	0.432049	-0.743201	-0.340111	0.429674	-0.757684	-0.343659	0.473548	-0.759383	-0.430498	0.198681	-0.703991	-0.306020	0.055932	-0.754053	-0.260407	0.065249	-0.681378	-0.234800	0.049443	-0.689506	
755	3.7750	-0.411103	1.742478	-0.551438	-0.339076	1.753395	-0.768741	-0.346377	1.748370	-0.348028	-0.251706	1.707451	-0.555421	-0.206692	1.223762	-0.432793	-0.207761	1.226156	-0.664054	-0.276954	1.308726	-0.389204	-0.265806	1.304615	-0.707596	-0.386552	1.274496	-0.493265	-0.384818	1.276637	-0.603043	-0.392488	1.280623	-0.545391	-0.328848	0.997621	-0.352281	-0.323018	0.939469	-0.339488	-0.258674	0.945283	-0.329996	-0.257022	1.005774	-0.341869	-0.407583	0.521956	-0.341986	-0.411933	0.479151	-0.343204	-0.353072	0.479377	-0.327935	-0.351607	0.519277	-0.330765	-0.420646	0.198596	-0.390573	-0.288348	0.073803	-0.315103	-0.240943	0.083688	-0.386981	-0.216970	0.069837	-0.379095	-0.298143	0.977513	-0.753917	-0.290155	0.916660	-0.758270	-0.225919	0.919455	-0.756788	-0.224751	0.979607	-0.752537	-0.396330	0.475799	-0.747132	-0.400926	0.435692	-0.743852	-0.339936	0.433585	-0.757875	-0.343650	0.477447	-0.759582	-0.430437	0.201988	-0.705283	-0.304496	0.060333	-0.755166	-0.260139	0.069093	-0.681311	-0.234254	0.053540	-0.688974	
756	3.7800	-0.411069	1.746037	-0.551513	-0.339019	1.757047	-0.768871	-0.346126	1.751980	-0.348251	-0.251637	1.710973	-0.555687	-0.206330	1.227063	-0.432982	-0.207890	1.229430	-0.664308	-0.275848	1.312193	-0.389163	-0.265792	1.307717	-0.707794	-0.386117	1.278410	-0.492974	-0.384693	1.280422	-0.602820	-0.392226	1.284485	-0.545146	-0.329556	1.001456	-0.352925	-0.324012	0.943214	-0.340159	-0.259682	0.948719	-0.330326	-0.257752	1.009237	-0.342071	-0.407532	0.525605	-0.341525	-0.411860	0.482737	-0.342830	-0.352747	0.483057	-0.328399	-0.351399	0.522952	-0.331318	-0.420663	0.200908	-0.391136	-0.286031	0.079162	-0.314404	-0.238757	0.089061	-0.386360	-0.214375	0.075803	-0.378466	-0.299860	0.981140	-0.753872	-0.292158	0.920228	-0.758317	-0.227931	0.922748	-0.757320	-0.226471	0.982893	-0.753025	-0.396422	0.479307	-0.747711	-0.400993	0.439178	-0.744492	-0.339879	0.437195	-0.758022	-0.343650	0.481046	-0.759734	-0.430763	0.204847	-0.706227	-0.302929	0.064854	-0.756345	-0.259741	0.073035	-0.681379	-0.233566	0.057764	-0.688597	
757	3.7850	-0.411015	1.749331	-0.551550	-0.339002	1.760399	-0.769049	-0.345809	1.755295	-0.348396	-0.251522	1.714250	-0.555951	-0.206089	1.230209	-0.433162	-0.208120	1.232483	-0.664541	-0.274861	1.315550	-0.389168	-0.265903	1.310571	-0.708007	-0.385788	1.282111	-0.492715	-0.384662	1.283980	-0.602617	-0.392071	1.288113	-0.544930	-0.330233	1.005032	-0.353550	-0.324898	0.946770	-0.340779	-0.260586	0.952054	-0.330650	-0.258447	1.012580	-0.342316	-0.407415	0.529162	-0.341101	-0.411798	0.486229	-0.342507	-0.352452	0.486563	-0.328872	-0.351164	0.526463	-0.331873	-0.420736	0.203008	-0.392091	-0.284003	0.084269	-0.314004	-0.236607	0.094389	-0.385699	-0.211857	0.081671	-0.377686	-0.301452	0.984496	-0.753876	-0.293966	0.923530	-0.758421	-0.229758	0.925862	-0.757853	-0.228078	0.985990	-0.753464	-0.396548	0.482630	-0.748233	-0.401174	0.442492	-0.745084	-0.339948	0.440506	-0.758138	-0.343683	0.484353	-0.759849	-0.431415	0.207314	-0.706834	-0.301411	0.069408	-0.757545	-0.259223	0.076988	-0.681623	-0.232764	0.062004	-0.688464	
758	3.7900	-0.410936	1.752375	-0.551554	-0.339028	1.763457	-0.769271	-0.345419	1.758315	-0.348469	-0.251429	1.717290	-0.556228	-0.205960	1.233222	-0.433340	-0.208448	1.235328	-0.664758	-0.274024	1.318794	-0.389218	-0.266155	1.313210	-0.708232	-0.385569	1.285610	-0.492493	-0.384724	1.287316	-0.602438	-0.392022	1.291507	-0.544745	-0.330844	1.008402	-0.354119	-0.325648	0.950131	-0.341354	-0.261361	0.955277	-0.330970	-0.259077	1.015815	-0.342595	-0.407299	0.532554	-0.340824	-0.411775	0.489557	-0.342294	-0.352246	0.489869	-0.329374	-0.350975	0.529775	-0.332414	-0.420777	0.204936	-0.393405	-0.282327	0.089051	-0.313896	-0.234552	0.099599	-0.385076	-0.209490	0.087373	-0.376852	-0.302889	0.987587	-0.753943	-0.295548	0.926569	-0.758578	-0.231350	0.928807	-0.758338	-0.229548	0.988902	-0.753844	-0.396721	0.485750	-0.748682	-0.401461	0.445620	-0.745598	-0.340138	0.443522	-0.758222	-0.343768	0.487372	-0.759930	-0.432302	0.209428	-0.707093	-0.300030	0.073921	-0.758745	-0.258621	0.080865	-0.682067	-0.231874	0.066181	-0.688626	
